<?xml version="1.0" encoding="UTF-8"?>
<svg id="Layer_1" data-name="Layer 1" xmlns="http://www.w3.org/2000/svg" viewBox="0 0 49.18196 45.32344">
  <defs>
    <style>
      .cls-1 {
        fill: #fd7014;
        stroke-width: 0px;
      }
    </style>
  </defs>
  <path class="cls-1" d="M24.58932,45.32344c-.60889,0-1.2168-.22949-1.70215-.68799-1.4502-1.38037-3.01514-2.81934-4.79102-4.40625-1.51758-1.35596-3.05518-2.68848-4.59277-4.02148l-.86377-.74902c-1.44482-1.25195-2.93848-2.54688-4.37451-3.8916-1.55176-1.45312-2.68359-2.63965-3.67041-3.84668-1.5249-1.8667-2.61719-3.74561-3.33984-5.74365-.43359-1.19971-.75439-2.47949-.95361-3.80322-.09521-.63525-.16357-1.27197-.21631-1.91064-.01758-.21143-.02832-.42334-.03857-.63477l-.01611-.30371c-.03906-.63867-.03223-1.25146-.02344-1.77637.04443-2.44531.66309-4.70898,1.83838-6.729C3.76022,3.5251,6.63912,1.37031,10.40182.41426c.77881-.19824,1.62988-.32275,2.60107-.38037,3.42041-.20117,6.58643.76904,9.40869,2.89307.77979.58643,1.5083,1.25391,2.18115,1.99756.8457-.93359,1.77881-1.75,2.79541-2.44482,1.62598-1.11084,3.41357-1.86133,5.31396-2.23047,1.0625-.20605,2.15869-.28564,3.2583-.23389,3.14893.14648,5.92676,1.19238,8.25586,3.10889,2.33887,1.9248,3.88525,4.43408,4.59619,7.4585.25342,1.07959.38428,2.23486.36816,3.25537-.00586,1.02588-.03223,1.771-.08789,2.49023-.23682,3.07178-.97119,5.70752-2.24609,8.05615-.67578,1.24512-1.50146,2.43994-2.52344,3.65234-1.31396,1.55908-2.73877,2.91699-3.8335,3.92578-1.4209,1.30908-2.8916,2.58154-4.31396,3.8125l-.77441.67041c-1.67578,1.45312-3.34961,2.90918-4.99756,4.39355-1.55371,1.39893-2.89551,2.63916-4.10254,3.79053-.48926.46289-1.10107.69385-1.71191.69385Z"/>
</svg>