<?xml version="1.0" encoding="UTF-8"?>
<svg id="Layer_1" data-name="Layer 1" xmlns="http://www.w3.org/2000/svg" viewBox="0 0 49.18196 45.32344">
  <defs>
    <style>
      .cls-1 {
        fill: #fff;
        stroke-width: 0px;
      }
    </style>
  </defs>
  <path class="cls-1" d="M24.58932,45.32344c-.60889,0-1.2168-.22949-1.70215-.68799-1.4502-1.38037-3.01514-2.81934-4.79102-4.40625-1.51758-1.35596-3.05518-2.68848-4.59277-4.02148l-.86377-.74902c-1.44482-1.25195-2.93848-2.54688-4.37451-3.8916-1.55176-1.45312-2.68359-2.63965-3.67041-3.84668-1.5249-1.8667-2.61719-3.74561-3.33984-5.74365-.43359-1.19971-.75439-2.47949-.95361-3.80322-.09521-.63525-.16357-1.27197-.21631-1.91064-.01758-.21143-.02832-.42334-.03857-.63477l-.01611-.30371c-.03906-.63867-.03223-1.25146-.02344-1.77637.04443-2.44531.66309-4.70898,1.83838-6.729C3.76022,3.5251,6.63912,1.37031,10.40182.41426c.77881-.19824,1.62988-.32275,2.60107-.38037,3.42041-.20117,6.58643.76904,9.40869,2.89307.77979.58643,1.5083,1.25391,2.18115,1.99756.8457-.93359,1.77881-1.75,2.79541-2.44482,1.62598-1.11084,3.41357-1.86133,5.31396-2.23047,1.0625-.20605,2.15869-.28564,3.2583-.23389,3.14893.14648,5.92676,1.19238,8.25586,3.10889,2.33887,1.9248,3.88525,4.43408,4.59619,7.4585.25342,1.07959.38428,2.23486.36816,3.25537-.00586,1.02588-.03223,1.771-.08789,2.49023-.23682,3.07178-.97119,5.70752-2.24609,8.05615-.67578,1.24512-1.50146,2.43994-2.52344,3.65234-1.31396,1.55908-2.73877,2.91699-3.8335,3.92578-1.4209,1.30908-2.8916,2.58154-4.31396,3.8125l-.77441.67041c-1.67578,1.45312-3.34961,2.90918-4.99756,4.39355-1.55371,1.39893-2.89551,2.63916-4.10254,3.79053-.48926.46289-1.10107.69385-1.71191.69385ZM13.88863,4.73848c-.19971,0-.40088.00586-.604.01807-.6792.04004-1.22461.11719-1.71729.24268-2.52002.64014-4.36279,2.01367-5.63281,4.19824-.77588,1.3335-1.16748,2.78418-1.19727,4.43506-.0083.4668-.01367.93555.01465,1.4043l.01953.35791c.00781.15967.01514.31982.02832.47949.04395.53418.10059,1.06641.18018,1.59668.15234,1.01562.396,1.99072.72412,2.89746.5376,1.4873,1.37305,2.91309,2.5542,4.3584.84863,1.03809,1.84814,2.08301,3.24072,3.38721,1.36914,1.28271,2.82812,2.54736,4.23926,3.77002l.86377.74902c1.55566,1.34814,3.11084,2.69678,4.646,4.06787,1.19824,1.0708,2.30322,2.07666,3.34229,3.04199.81592-.7583,1.69336-1.56006,2.64746-2.41943,1.67041-1.50391,3.36572-2.97949,5.06396-4.45215l.77832-.67383c1.39502-1.20703,2.8374-2.45508,4.20361-3.71436.99268-.91455,2.27832-2.13818,3.42236-3.49512.81299-.96484,1.46143-1.90039,1.98242-2.86035.95117-1.75146,1.50293-3.76807,1.6875-6.16406.04688-.60449.06885-1.25098.07422-2.16406v-.02686c.01074-.63525-.07764-1.40332-.24316-2.10791-.47461-2.02002-1.45508-3.61865-2.99658-4.88721-1.54492-1.271-3.33398-1.93701-5.46924-2.03662-.72412-.03125-1.44336.01758-2.13721.15283-1.28125.24854-2.44141.73633-3.54639,1.4917-1.33496.9126-2.43506,2.08789-3.36279,3.59229-.66113,1.07324-1.60205,1.23389-2.104,1.23389h-.00049c-.50195,0-1.44336-.16064-2.10645-1.23779-.82812-1.34473-1.78223-2.41309-2.9165-3.26611-1.75684-1.32227-3.62012-1.96924-5.67871-1.96924Z"/>
</svg>