<?xml version="1.0" encoding="UTF-8"?>
<svg id="Layer_1" data-name="Layer 1" xmlns="http://www.w3.org/2000/svg" viewBox="0 0 62.95361 43.42603">
  <defs>
    <style>
      .cls-1 {
        fill: #fd7014;
        stroke-width: 0px;
      }
    </style>
  </defs>
  <path class="cls-1" d="M51.41016,17.58655v-6.89734c0-.37598-.14941-.73633-.41504-1.00195L41.72314.41528c-.55371-.55371-1.45117-.55371-2.00488,0-.55322.55322-.55322,1.45068,0,2.00391l8.85693,8.85693v6.31042c-5.25665.57489-9.57092,4.30536-11.0166,9.25165l-9.0661-12.43365h4.18573c.78271,0,1.41748-.63477,1.41748-1.41748s-.63477-1.41748-1.41748-1.41748h-13.9458c-.78271,0-1.41748.63477-1.41748,1.41748s.63477,1.41748,1.41748,1.41748h6.25238l10.67731,14.64355h-9.82214c-.70886-6.48151-6.21191-11.54297-12.87903-11.54297-7.14648,0-12.96094,5.81396-12.96094,12.96045s5.81445,12.96045,12.96094,12.96045c6.66711,0,12.17017-5.06146,12.87903-11.54297h11.27368c.70886,6.48151,6.21191,11.54297,12.87903,11.54297,7.14648,0,12.96094-5.81396,12.96094-12.96045,0-6.66711-5.06189-12.17017-11.54346-12.87903ZM12.96094,40.59106c-5.5835,0-10.12598-4.54199-10.12598-10.12549s4.54248-10.12549,10.12598-10.12549c5.10126,0,9.32135,3.79498,10.0144,8.70801h-10.0144c-.78271,0-1.41748.63477-1.41748,1.41748s.63477,1.41748,1.41748,1.41748h10.0144c-.69305,4.91302-4.91315,8.70801-10.0144,8.70801ZM49.99268,40.59106c-5.5835,0-10.12549-4.54199-10.12549-10.12549,0-5.10126,3.79498-9.32135,8.70801-10.0144v10.0144c0,.78271.63477,1.41748,1.41748,1.41748s1.41748-.63477,1.41748-1.41748v-10.0144c4.91309.69305,8.7085,4.91315,8.7085,10.0144,0,5.5835-4.54248,10.12549-10.12598,10.12549Z"/>
</svg>