<?xml version="1.0" encoding="UTF-8"?>
<svg id="Layer_1" data-name="Layer 1" xmlns="http://www.w3.org/2000/svg" viewBox="0 0 46.5542 48.13441">
  <defs>
    <style>
      .cls-1 {
        fill: #eeeeee;
        stroke-width: 0px;
      }
    </style>
  </defs>
  <path class="cls-1" d="M43.98535,48.13441h-20.7085c-1.41895,0-2.56885-1.1499-2.56885-2.56885v-21.49854c0-1.41895,1.1499-2.56885,2.56885-2.56885s2.56885,1.1499,2.56885,2.56885v18.92969h15.5708v-21.72754L23.3833,5.93324,5.1377,21.27796v24.2876c0,1.41895-1.1499,2.56885-2.56885,2.56885s-2.56885-1.1499-2.56885-2.56885v-25.48389c0-.7583.33496-1.47803.91553-1.96582L21.73926.60316c.95947-.80762,2.36182-.80371,3.31738.00879l20.59277,17.5127c.57422.48828.90479,1.20361.90479,1.95703v25.48389c0,1.41895-1.1499,2.56885-2.56885,2.56885Z"/>
</svg>