<?xml version="1.0" encoding="UTF-8"?>
<svg xmlns="http://www.w3.org/2000/svg" xmlns:xlink="http://www.w3.org/1999/xlink" viewBox="0 0 1999.61897 3370.21277">
  <defs>
    <style>
      .cls-1 {
        fill: url(#linear-gradient-12);
      }

      .cls-1, .cls-2, .cls-3, .cls-4, .cls-5, .cls-6, .cls-7, .cls-8, .cls-9, .cls-10, .cls-11, .cls-12, .cls-13, .cls-14, .cls-15, .cls-16, .cls-17, .cls-18, .cls-19, .cls-20, .cls-21, .cls-22, .cls-23, .cls-24, .cls-25, .cls-26, .cls-27, .cls-28, .cls-29, .cls-30, .cls-31, .cls-32, .cls-33, .cls-34, .cls-35, .cls-36, .cls-37, .cls-38, .cls-39, .cls-40, .cls-41 {
        stroke-width: 0px;
      }

      .cls-2 {
        opacity: .19;
      }

      .cls-2, .cls-12 {
        fill: #ffde17;
      }

      .cls-3 {
        fill: url(#linear-gradient-17);
      }

      .cls-4 {
        filter: url(#outer-glow-2);
      }

      .cls-4, .cls-19, .cls-20, .cls-30, .cls-32, .cls-39 {
        fill: #d7df23;
      }

      .cls-5 {
        fill: url(#linear-gradient-19);
      }

      .cls-6 {
        fill: #f58345;
      }

      .cls-7 {
        fill: url(#linear-gradient);
      }

      .cls-8 {
        fill: #f89f6e;
      }

      .cls-9 {
        opacity: .5;
      }

      .cls-9, .cls-36 {
        fill: #fcc4a5;
      }

      .cls-10 {
        fill: url(#linear-gradient-21);
      }

      .cls-11 {
        fill: url(#linear-gradient-6);
      }

      .cls-12 {
        opacity: .2;
      }

      .cls-13 {
        fill: url(#linear-gradient-15);
      }

      .cls-14 {
        fill: url(#linear-gradient-11);
      }

      .cls-15 {
        fill: url(#linear-gradient-5);
      }

      .cls-16 {
        fill: #124c42;
      }

      .cls-17 {
        fill: #f37121;
      }

      .cls-18 {
        fill: url(#linear-gradient-13);
      }

      .cls-19 {
        filter: url(#outer-glow-3);
      }

      .cls-20 {
        filter: url(#outer-glow-5);
      }

      .cls-21 {
        fill: url(#linear-gradient-16);
      }

      .cls-22 {
        fill: url(#New_Gradient_Swatch_1-3);
      }

      .cls-23 {
        fill: url(#linear-gradient-20);
      }

      .cls-24 {
        fill: #eee;
      }

      .cls-25 {
        fill: url(#linear-gradient-14);
      }

      .cls-26 {
        fill: #fcddcd;
      }

      .cls-27 {
        fill: url(#linear-gradient-2);
      }

      .cls-28 {
        fill: #222831;
      }

      .cls-29 {
        fill: url(#New_Gradient_Swatch_1);
      }

      .cls-30 {
        filter: url(#outer-glow-4);
      }

      .cls-31 {
        fill: url(#linear-gradient-7);
      }

      .cls-32 {
        filter: url(#outer-glow-1);
      }

      .cls-33 {
        fill: url(#linear-gradient-3);
      }

      .cls-34 {
        fill: url(#New_Gradient_Swatch_1-2);
      }

      .cls-35 {
        fill: url(#linear-gradient-9);
      }

      .cls-37 {
        fill: url(#linear-gradient-8);
      }

      .cls-38 {
        fill: url(#linear-gradient-18);
      }

      .cls-39 {
        filter: url(#outer-glow-6);
      }

      .cls-40 {
        fill: url(#linear-gradient-10);
      }

      .cls-41 {
        fill: url(#linear-gradient-4);
      }
    </style>
    <linearGradient id="linear-gradient" x1="1332.82137" y1="873.92039" x2="1392.75598" y2="873.92039" gradientUnits="userSpaceOnUse">
      <stop offset="0" stop-color="#f89f6e"/>
      <stop offset="1" stop-color="#f89f6e" stop-opacity=".2"/>
    </linearGradient>
    <linearGradient id="linear-gradient-2" y1="915.31799" y2="915.31799" xlink:href="#linear-gradient"/>
    <linearGradient id="linear-gradient-3" y1="956.71544" y2="956.71544" xlink:href="#linear-gradient"/>
    <linearGradient id="linear-gradient-4" y1="998.11304" y2="998.11304" xlink:href="#linear-gradient"/>
    <linearGradient id="linear-gradient-5" y1="1039.51064" y2="1039.51064" xlink:href="#linear-gradient"/>
    <linearGradient id="linear-gradient-6" y1="1080.90809" y2="1080.90809" xlink:href="#linear-gradient"/>
    <linearGradient id="linear-gradient-7" y1="1122.30569" y2="1122.30569" xlink:href="#linear-gradient"/>
    <linearGradient id="linear-gradient-8" y1="1163.70329" y2="1163.70329" xlink:href="#linear-gradient"/>
    <linearGradient id="linear-gradient-9" y1="1205.10074" y2="1205.10074" xlink:href="#linear-gradient"/>
    <linearGradient id="linear-gradient-10" y1="1246.49834" y2="1246.49834" xlink:href="#linear-gradient"/>
    <linearGradient id="linear-gradient-11" y1="1287.89586" y2="1287.89586" xlink:href="#linear-gradient"/>
    <filter id="outer-glow-1" filterUnits="userSpaceOnUse">
      <feOffset dx="0" dy="0"/>
      <feGaussianBlur result="blur" stdDeviation="16.41715"/>
      <feFlood flood-color="#f9f06c" flood-opacity="1"/>
      <feComposite in2="blur" operator="in"/>
      <feComposite in="SourceGraphic"/>
    </filter>
    <filter id="outer-glow-2" filterUnits="userSpaceOnUse">
      <feOffset dx="0" dy="0"/>
      <feGaussianBlur result="blur-2" stdDeviation="16.41715"/>
      <feFlood flood-color="#f9f06c" flood-opacity="1"/>
      <feComposite in2="blur-2" operator="in"/>
      <feComposite in="SourceGraphic"/>
    </filter>
    <filter id="outer-glow-3" filterUnits="userSpaceOnUse">
      <feOffset dx="0" dy="0"/>
      <feGaussianBlur result="blur-3" stdDeviation="16.41715"/>
      <feFlood flood-color="#f9f06c" flood-opacity="1"/>
      <feComposite in2="blur-3" operator="in"/>
      <feComposite in="SourceGraphic"/>
    </filter>
    <filter id="outer-glow-4" filterUnits="userSpaceOnUse">
      <feOffset dx="0" dy="0"/>
      <feGaussianBlur result="blur-4" stdDeviation="16.41715"/>
      <feFlood flood-color="#f9f06c" flood-opacity="1"/>
      <feComposite in2="blur-4" operator="in"/>
      <feComposite in="SourceGraphic"/>
    </filter>
    <linearGradient id="linear-gradient-12" x1="1262.01306" y1="1430.45328" x2="1343.09032" y2="1430.45328" xlink:href="#linear-gradient"/>
    <linearGradient id="linear-gradient-13" x1="1262.01306" y1="1459.5523" x2="1343.09032" y2="1459.5523" xlink:href="#linear-gradient"/>
    <linearGradient id="linear-gradient-14" x1="1262.01306" y1="1488.8887" x2="1343.09032" y2="1488.8887" xlink:href="#linear-gradient"/>
    <linearGradient id="linear-gradient-15" x1="1262.01306" y1="1516.97749" x2="1343.09032" y2="1516.97749" xlink:href="#linear-gradient"/>
    <linearGradient id="linear-gradient-16" x1="1206.92508" y1="1588.87982" x2="1232.29458" y2="1588.87982" gradientUnits="userSpaceOnUse">
      <stop offset="0" stop-color="#eee"/>
      <stop offset=".30629" stop-color="rgba(238, 238, 238, .71793)" stop-opacity=".71793"/>
      <stop offset=".63641" stop-color="rgba(238, 238, 238, .44028)" stop-opacity=".44028"/>
      <stop offset=".87676" stop-color="rgba(238, 238, 238, .26639)" stop-opacity=".26639"/>
      <stop offset="1" stop-color="#eee" stop-opacity=".2"/>
    </linearGradient>
    <linearGradient id="New_Gradient_Swatch_1" data-name="New Gradient Swatch 1" x1="1122.38679" y1="1345.48015" x2="1124.3828" y2="1345.48015" gradientTransform="translate(-519.91463 2690.9603) scale(1 -1)" gradientUnits="userSpaceOnUse">
      <stop offset="0" stop-color="#19756f"/>
      <stop offset="1" stop-color="#124c42"/>
    </linearGradient>
    <linearGradient id="linear-gradient-17" x1="1116.66518" y1="1316.96103" x2="1129.76398" y2="1316.96103" gradientTransform="translate(1726.68474) rotate(-180) scale(1 -1)" gradientUnits="userSpaceOnUse">
      <stop offset="0" stop-color="#fff200"/>
      <stop offset="1" stop-color="#fbb040"/>
    </linearGradient>
    <linearGradient id="New_Gradient_Swatch_1-2" data-name="New Gradient Swatch 1" x1="1115.55848" y1="1312.32656" x2="1130.88237" y2="1312.32656" gradientTransform="translate(-519.78996 2624.65311) scale(1 -1)" xlink:href="#New_Gradient_Swatch_1"/>
    <linearGradient id="New_Gradient_Swatch_1-3" data-name="New Gradient Swatch 1" x1="1117.55843" y1="1309.08827" x2="1128.892" y2="1309.08827" gradientTransform="translate(1726.69538) rotate(-180) scale(1 -1)" xlink:href="#New_Gradient_Swatch_1"/>
    <filter id="outer-glow-5" filterUnits="userSpaceOnUse">
      <feOffset dx="0" dy="0"/>
      <feGaussianBlur result="blur-5" stdDeviation="16.41715"/>
      <feFlood flood-color="#f9f06c" flood-opacity="1"/>
      <feComposite in2="blur-5" operator="in"/>
      <feComposite in="SourceGraphic"/>
    </filter>
    <filter id="outer-glow-6" filterUnits="userSpaceOnUse">
      <feOffset dx="0" dy="0"/>
      <feGaussianBlur result="blur-6" stdDeviation="16.41715"/>
      <feFlood flood-color="#f9f06c" flood-opacity="1"/>
      <feComposite in2="blur-6" operator="in"/>
      <feComposite in="SourceGraphic"/>
    </filter>
    <linearGradient id="linear-gradient-18" x1="1007.71522" y1="1005.96971" x2="1099.71035" y2="1005.96971" xlink:href="#linear-gradient"/>
    <linearGradient id="linear-gradient-19" x1="1007.71522" y1="1064.18061" x2="1099.71035" y2="1064.18061" xlink:href="#linear-gradient"/>
    <linearGradient id="linear-gradient-20" x1="1007.71522" y1="1121.96808" x2="1099.71035" y2="1121.96808" xlink:href="#linear-gradient"/>
    <linearGradient id="linear-gradient-21" x1="1007.71522" y1="1175.96939" x2="1099.71035" y2="1175.96939" xlink:href="#linear-gradient"/>
  </defs>
  <g id="Layer_1" data-name="Layer 1">
    <rect class="cls-28" x="106.17216" width="1893.44681" height="3370.21277"/>
  </g>
  <g id="Layer_2" data-name="Layer 2">
    <polygon class="cls-8" points="799.41709 1079.7174 799.41709 1329.11732 699.60081 1288.00415 699.60081 1038.11167 799.41709 1079.7174"/>
    <polygon class="cls-8" points="1000.01131 993.83225 999.54222 1207.51318 952.91749 1227.37787 899.25685 1205.00369 899.23337 1038.11167 848.80926 1016.48786 848.29336 931.75189 1000.01131 993.83225"/>
    <polygon class="cls-6" points="898.71747 1204.76921 899.25685 1288.02763 799.41709 1329.11732 799.41709 1079.7174 849.09068 1059.0083 899.23337 1038.11167 899.25685 1205.00369 898.71747 1204.76921"/>
    <polygon class="cls-6" points="1100.22625 1205.35554 1081.39336 1213.09503 1046.44837 1227.47177 999.72988 1207.44275 999.54222 1207.51318 1000.01131 993.83225 1099.8744 952.22638 1100.22625 1205.35554"/>
    <polygon class="cls-26" points="899.23337 1038.11167 849.09068 1059.0083 799.41709 1079.7174 699.60081 1038.11167 799.72199 995.45052 848.80926 1016.48786 899.23337 1038.11167"/>
    <polygon class="cls-26" points="1099.8744 952.22638 1000.01131 993.83225 848.29336 931.75189 1003.57608 869.43705 1099.80411 908.9789 1099.8744 952.22638"/>
    <polygon class="cls-17" points="1099.26474 1324.16875 1099.26474 1250.1039 1099.14736 1250.05709 1046.44837 1227.47177 1081.39336 1213.09503 1100.22625 1205.35554 1100.39044 1323.72314 1099.26474 1324.16875"/>
    <polygon class="cls-17" points="1660.9424 1559.2154 1558.35868 1600.84461 1351.64324 1517.42215 1351.29139 1436.97799 1351.26791 1433.50698 1351.05691 1388.28952 1308.65371 1370.48858 1457.86216 1308.43169 1558.28825 1350.29551 1355.48958 1435.21901 1660.9424 1559.2154"/>
    <polygon class="cls-16" points="1209.09538 1411.90664 1099.26474 1365.23511 1099.26474 1365.21163 1209.09538 1411.90664"/>
    <polygon class="cls-16" points="1250.93573 1429.66064 1250.91225 1429.68411 1209.11886 1411.90664 1250.93573 1429.66064"/>
    <polygon class="cls-17" points="1253.3748 1559.84868 1251.82696 1560.50543 1051.02174 1474.972 1050.99827 1473.65863 1050.74032 1435.54738 1005.38201 1454.21608 999.42498 1456.67863 899.6087 1414.34586 899.6087 1287.88692 899.6087 1250.1039 899.72594 1250.05709 952.91749 1227.37787 899.25685 1205.00369 898.71747 1204.76921 899.25685 1288.02763 799.41709 1329.11732 699.60081 1288.00415 645.02546 1265.53607 592.04504 1288.14487 692.33041 1331.13425 595.98514 1370.77 646.76111 1391.92472 446.44831 1474.36219 599.43267 1537.7794 799.3468 1455.52945 1201.23866 1622.98432 1303.84586 1581.35511 1253.3748 1559.84868"/>
    <polygon class="cls-8" points="1251.56901 890.61525 1250.0445 1183.21583 1249.59889 1270.29711 1249.2237 1345.55795 1158.81198 1307.63436 1149.31352 1303.64731 1100.39044 1323.72314 1100.22625 1205.35554 1099.8744 952.22638 1099.80411 908.9789 1099.71035 829.05093 1251.56901 890.61525"/>
    <polygon class="cls-8" points="1099.70377 829.0462 1099.70377 829.04892 1099.70706 829.04749 1099.70377 829.0462"/>
    <polygon class="cls-6" points="1402.30182 827.57337 1403.16995 1331.17858 1308.65371 1370.48858 1249.2237 1345.55795 1249.59889 1270.29711 1250.0445 1183.21583 1251.56901 890.61525 1402.30182 827.57337"/>
    <polygon class="cls-6" points="1402.30655 827.52298 1402.25745 827.5436 1402.30655 827.56392 1402.30655 827.52298"/>
    <polygon class="cls-26" points="1402.25502 827.5499 1251.56901 890.59177 1251.56901 890.61525 1099.71035 829.05093 1253.4687 765.84486 1402.25502 827.5499"/>
    <polygon class="cls-24" points="1402.30182 827.57337 1251.56901 890.61525 1251.56901 890.59177 1402.25502 827.5499 1402.30182 827.57337"/>
    <rect class="cls-24" x="1251.56171" y="890.62416" width=".00272" height=".0002" transform="translate(-263.19212 1145.84653) rotate(-45)"/>
    <polygon class="cls-6" points="1050.13052 1344.33834 1050.10704 1344.33834 1050.17732 1352.33592 1050.74032 1435.54738 1005.38201 1454.21608 999.42498 1456.67863 999.42498 1291.73311 1099.26474 1250.1039 1099.26474 1324.16875 1050.13052 1344.33834"/>
    <polygon class="cls-6" points="1099.26474 1365.21163 1099.26474 1365.23511 1059.72274 1348.4193 1099.26474 1365.21163"/>
    <polygon class="cls-8" points="1051.02174 1474.972 1051.02174 1473.65863 1050.95132 1435.4771 1050.95132 1435.45362 1050.74032 1435.54738 1050.17732 1352.33592 1050.10704 1344.33834 1050.13052 1344.33834 1059.69927 1348.4193 1059.72274 1348.4193 1099.26474 1365.23511 1209.09538 1411.90664 1209.11886 1411.90664 1250.91225 1429.68411 1251.24063 1476.91864 1251.26411 1477.80987 1251.80348 1559.19207 1251.82696 1560.50543 1051.02174 1474.972"/>
    <polygon class="cls-8" points="1051.02174 1473.65863 1050.99827 1473.65863 1050.74032 1435.54738 1050.95132 1435.4771 1051.02174 1473.65863"/>
    <polygon class="cls-8" points="1051.02174 1473.65863 1051.02174 1474.972 1050.99827 1473.65863 1051.02174 1473.65863"/>
    <polygon class="cls-8" points="1050.95132 1435.45362 1050.95132 1435.4771 1050.74032 1435.54738 1050.95132 1435.45362"/>
    <polygon class="cls-6" points="1351.64324 1517.42215 1351.64324 1519.4156 1253.3748 1559.84868 1251.80348 1559.19207 1251.26411 1477.80987 1252.50705 1478.32577 1253.60942 1477.88015 1251.24063 1476.91864 1250.91225 1429.68411 1250.93573 1429.66064 1295.96566 1411.06237 1351.05691 1388.28952 1351.26791 1433.50698 1351.29139 1436.97799 1351.64324 1517.42215"/>
    <polygon class="cls-6" points="1253.60942 1477.88015 1252.50705 1478.32577 1251.26411 1477.80987 1251.24063 1476.91864 1253.60942 1477.88015"/>
    <polygon class="cls-6" points="1253.3748 1559.84868 1251.82696 1560.50543 1251.80348 1559.19207 1253.3748 1559.84868"/>
    <polygon class="cls-8" points="1261.11486 930.3628 1321.04946 905.26311 1321.04946 877.65751 1261.11486 902.53303 1261.11486 930.3628"/>
    <polygon class="cls-7" points="1332.82137 872.44327 1332.82137 900.27304 1392.75598 875.17335 1392.75598 847.56775 1332.82137 872.44327"/>
    <polygon class="cls-8" points="1261.11486 971.7604 1321.04946 946.66057 1321.04946 919.05511 1261.11486 943.93063 1261.11486 971.7604"/>
    <polygon class="cls-27" points="1332.82137 941.67063 1392.75598 916.5708 1392.75598 888.96534 1332.82137 913.84086 1332.82137 941.67063"/>
    <polygon class="cls-8" points="1261.11486 1013.15799 1321.04946 988.05816 1321.04946 960.4527 1261.11486 985.32822 1261.11486 1013.15799"/>
    <polygon class="cls-33" points="1332.82137 983.06809 1392.75598 957.9684 1392.75598 930.3628 1332.82137 955.23832 1332.82137 983.06809"/>
    <polygon class="cls-8" points="1261.11486 1054.55545 1321.04946 1029.45576 1321.04946 1001.85016 1261.11486 1026.72568 1261.11486 1054.55545"/>
    <polygon class="cls-41" points="1332.82137 1024.46568 1392.75598 999.36586 1392.75598 971.7604 1332.82137 996.63591 1332.82137 1024.46568"/>
    <polygon class="cls-8" points="1261.11486 1095.95304 1321.04946 1070.85322 1321.04946 1043.24776 1261.11486 1068.12327 1261.11486 1095.95304"/>
    <polygon class="cls-15" points="1332.82137 1065.86328 1392.75598 1040.76345 1392.75598 1013.15799 1332.82137 1038.03351 1332.82137 1065.86328"/>
    <polygon class="cls-8" points="1261.11486 1137.35064 1321.04946 1112.25081 1321.04946 1084.64535 1261.11486 1109.52073 1261.11486 1137.35064"/>
    <polygon class="cls-11" points="1332.82137 1107.26074 1392.75598 1082.16105 1392.75598 1054.55545 1332.82137 1079.43097 1332.82137 1107.26074"/>
    <polygon class="cls-8" points="1261.11486 1178.7481 1321.04946 1153.64841 1321.04946 1126.04281 1261.11486 1150.91833 1261.11486 1178.7481"/>
    <polygon class="cls-31" points="1332.82137 1148.65833 1392.75598 1123.5585 1392.75598 1095.95304 1332.82137 1120.82856 1332.82137 1148.65833"/>
    <polygon class="cls-8" points="1261.11486 1220.14569 1321.04946 1195.04586 1321.04946 1167.4404 1261.11486 1192.31592 1261.11486 1220.14569"/>
    <polygon class="cls-37" points="1332.82137 1190.05593 1392.75598 1164.9561 1392.75598 1137.35064 1332.82137 1162.22616 1332.82137 1190.05593"/>
    <polygon class="cls-8" points="1261.11486 1261.54315 1321.04946 1236.44346 1321.04946 1208.83786 1261.11486 1233.71338 1261.11486 1261.54315"/>
    <polygon class="cls-35" points="1332.82137 1231.45338 1392.75598 1206.3537 1392.75598 1178.7481 1332.82137 1203.62361 1332.82137 1231.45338"/>
    <polygon class="cls-8" points="1261.11486 1302.94074 1321.04946 1277.84092 1321.04946 1250.23546 1261.11486 1275.11097 1261.11486 1302.94074"/>
    <polygon class="cls-40" points="1332.82137 1272.85098 1392.75598 1247.75115 1392.75598 1220.14569 1332.82137 1245.02121 1332.82137 1272.85098"/>
    <polygon class="cls-8" points="1261.11486 1344.33834 1321.04946 1319.23851 1321.04946 1291.63305 1261.11486 1316.50857 1261.11486 1344.33834"/>
    <polygon class="cls-14" points="1332.82137 1314.24858 1392.75598 1289.14875 1392.75598 1261.54315 1332.82137 1286.41867 1332.82137 1314.24858"/>
    <polygon class="cls-32" points="1239.64732 932.98981 1178.4103 908.0494 1178.4103 880.61898 1239.64732 905.33664 1239.64732 932.98981"/>
    <polygon class="cls-36" points="1166.38257 875.43782 1166.38257 903.09099 1105.14555 878.15058 1105.14555 850.72016 1166.38257 875.43782"/>
    <polygon class="cls-36" points="1239.64732 974.12471 1178.4103 949.18416 1178.4103 921.75388 1239.64732 946.47154 1239.64732 974.12471"/>
    <polygon class="cls-36" points="1166.38257 944.22589 1105.14555 919.28534 1105.14555 891.85505 1166.38257 916.57272 1166.38257 944.22589"/>
    <polygon class="cls-36" points="1239.64732 1015.25961 1178.4103 990.31906 1178.4103 962.88878 1239.64732 987.60644 1239.64732 1015.25961"/>
    <polygon class="cls-36" points="1166.38257 985.36065 1105.14555 960.42024 1105.14555 932.98981 1166.38257 957.70748 1166.38257 985.36065"/>
    <polygon class="cls-4" points="1239.64732 1056.39437 1178.4103 1031.45396 1178.4103 1004.02353 1239.64732 1028.7412 1239.64732 1056.39437"/>
    <polygon class="cls-36" points="1166.38257 1026.49555 1105.14555 1001.55499 1105.14555 974.12471 1166.38257 998.84238 1166.38257 1026.49555"/>
    <polygon class="cls-36" points="1239.64732 1097.52927 1178.4103 1072.58872 1178.4103 1045.15843 1239.64732 1069.8761 1239.64732 1097.52927"/>
    <polygon class="cls-9" points="1239.64732 1056.39444 1178.4103 1031.45389 1178.4103 1004.0236 1239.64732 1028.74127 1239.64732 1056.39444"/>
    <polygon class="cls-9" points="1239.64732 932.98995 1178.4103 908.0494 1178.4103 880.61912 1239.64732 905.33678 1239.64732 932.98995"/>
    <polygon class="cls-36" points="1166.38257 1067.63045 1105.14555 1042.68989 1105.14555 1015.25961 1166.38257 1039.97728 1166.38257 1067.63045"/>
    <polygon class="cls-36" points="1239.64732 1138.66417 1178.4103 1113.72361 1178.4103 1086.29333 1239.64732 1111.01085 1239.64732 1138.66417"/>
    <polygon class="cls-19" points="1166.38257 1108.7652 1105.14555 1083.82479 1105.14555 1056.39437 1166.38257 1081.11203 1166.38257 1108.7652"/>
    <polygon class="cls-36" points="1239.64732 1179.79892 1178.4103 1154.85851 1178.4103 1127.42809 1239.64732 1152.14575 1239.64732 1179.79892"/>
    <polygon class="cls-36" points="1239.64732 1220.93382 1178.4103 1195.99327 1178.4103 1168.56299 1239.64732 1193.28065 1239.64732 1220.93382"/>
    <polygon class="cls-36" points="1166.38257 1191.035 1105.14555 1166.09445 1105.14555 1138.66417 1166.38257 1163.38183 1166.38257 1191.035"/>
    <polygon class="cls-36" points="1239.64732 1262.06858 1178.4103 1237.12817 1178.4103 1209.69775 1239.64732 1234.41541 1239.64732 1262.06858"/>
    <polygon class="cls-36" points="1166.38257 1232.16976 1105.14555 1207.22935 1105.14555 1179.79892 1166.38257 1204.51659 1166.38257 1232.16976"/>
    <polygon class="cls-36" points="1099.92685 1399.90083 1068.05977 1385.992 1068.05977 1365.64537 1099.92685 1379.38898 1099.92685 1399.90083"/>
    <polygon class="cls-36" points="1141.60569 1417.52757 1109.73862 1403.61873 1109.73862 1383.2721 1141.60569 1397.01571 1141.60569 1417.52757"/>
    <polygon class="cls-36" points="1184.42003 1435.7531 1152.55295 1421.84427 1152.55295 1401.49764 1184.42003 1415.24125 1184.42003 1435.7531"/>
    <polygon class="cls-36" points="1227.00629 1454.07844 1195.13921 1440.1696 1195.13921 1419.82297 1227.00629 1433.56659 1227.00629 1454.07844"/>
    <polygon class="cls-30" points="1227.00629 1483.17745 1195.13921 1469.26862 1195.13921 1448.92199 1227.00629 1462.6656 1227.00629 1483.17745"/>
    <polygon class="cls-1" points="1262.03654 1457.8355 1343.09032 1423.4177 1343.09032 1403.07107 1262.01306 1436.68255 1262.03654 1457.8355"/>
    <polygon class="cls-18" points="1262.03654 1486.93451 1343.09032 1452.51671 1343.09032 1432.17008 1262.01306 1465.78157 1262.03654 1486.93451"/>
    <polygon class="cls-25" points="1262.03654 1516.27092 1343.09032 1481.85311 1343.09032 1461.50648 1262.01306 1495.11797 1262.03654 1516.27092"/>
    <polygon class="cls-13" points="1262.03654 1544.3597 1343.09032 1509.9419 1343.09032 1489.59527 1262.01306 1523.20675 1262.03654 1544.3597"/>
    <polygon class="cls-36" points="1099.92685 1428.99985 1068.05977 1415.09101 1068.05977 1394.74438 1099.92685 1408.488 1099.92685 1428.99985"/>
    <polygon class="cls-36" points="1141.60569 1446.62658 1109.73862 1432.71775 1109.73862 1412.37112 1141.60569 1426.11473 1141.60569 1446.62658"/>
    <polygon class="cls-36" points="1184.42003 1464.85212 1152.55295 1450.94328 1152.55295 1430.59665 1184.42003 1444.34027 1184.42003 1464.85212"/>
    <polygon class="cls-9" points="1227.00629 1483.17745 1195.13921 1469.26862 1195.13921 1448.92199 1227.00629 1462.6656 1227.00629 1483.17745"/>
    <polygon class="cls-36" points="1099.92685 1456.08865 1068.05977 1442.17981 1068.05977 1421.83318 1099.92685 1435.5768 1099.92685 1456.08865"/>
    <polygon class="cls-36" points="1141.60569 1473.71538 1109.73862 1459.80655 1109.73862 1439.45992 1141.60569 1453.20353 1141.60569 1473.71538"/>
    <polygon class="cls-36" points="1184.42003 1491.94092 1152.55295 1478.03208 1152.55295 1457.68546 1184.42003 1471.42907 1184.42003 1491.94092"/>
    <polygon class="cls-36" points="1227.00629 1510.26626 1195.13921 1496.35742 1195.13921 1476.01079 1227.00629 1489.75441 1227.00629 1510.26626"/>
    <polygon class="cls-36" points="1099.92685 1483.17745 1068.05977 1469.26862 1068.05977 1448.92199 1099.92685 1462.6656 1099.92685 1483.17745"/>
    <polygon class="cls-36" points="1141.60569 1500.80419 1109.73862 1486.89535 1109.73862 1466.54872 1141.60569 1480.29234 1141.60569 1500.80419"/>
    <polygon class="cls-36" points="1184.42003 1519.02972 1152.55295 1505.12089 1152.55295 1484.77426 1184.42003 1498.51787 1184.42003 1519.02972"/>
    <polygon class="cls-36" points="1227.00629 1537.35506 1195.13921 1523.44622 1195.13921 1503.0996 1227.00629 1516.84321 1227.00629 1537.35506"/>
    <polygon class="cls-36" points="1239.64732 1303.20348 1178.4103 1278.26293 1178.4103 1250.83264 1239.64732 1275.55031 1239.64732 1303.20348"/>
    <polygon class="cls-36" points="1166.38257 1273.30466 1105.14555 1248.36411 1105.14555 1220.93382 1166.38257 1245.65149 1166.38257 1273.30466"/>
    <polygon class="cls-36" points="1239.64732 1344.33838 1178.4103 1319.39783 1178.4103 1291.96754 1239.64732 1316.68521 1239.64732 1344.33838"/>
    <polygon class="cls-36" points="1166.38257 1314.43956 1105.14555 1289.49901 1105.14555 1262.06858 1166.38257 1286.78625 1166.38257 1314.43956"/>
    <polygon class="cls-36" points="1166.38257 1353.39127 1105.14555 1328.45071 1105.14555 1301.02029 1166.38257 1325.73795 1166.38257 1353.39127"/>
    <polygon class="cls-26" points="1351.05691 1388.28952 1295.96566 1411.06237 1250.93573 1429.66064 1209.11886 1411.90664 1209.09538 1411.90664 1099.26474 1365.21163 1059.72274 1348.4193 1059.69927 1348.4193 1050.13052 1344.33834 1099.26474 1324.16875 1100.39044 1323.72314 1149.31352 1303.64731 1158.81198 1307.63436 1249.2237 1345.55795 1307.48106 1369.99601 1308.65371 1370.48858 1351.05691 1388.28952"/>
    <g>
      <polygon class="cls-24" points="639.21706 1284.89398 620.37621 1276.5952 626.07351 1274.03049 645.74571 1282.06845 639.21706 1284.89398"/>
      <polygon class="cls-24" points="664.58656 1295.75747 645.74571 1287.45869 651.44301 1284.89398 671.11521 1292.93193 664.58656 1295.75747"/>
      <polygon class="cls-24" points="689.95606 1306.62096 671.11521 1298.32218 676.81251 1295.75747 696.48471 1303.79542 689.95606 1306.62096"/>
      <polygon class="cls-24" points="715.32556 1317.48445 696.48471 1309.18566 702.18201 1306.62096 721.85421 1314.65891 715.32556 1317.48445"/>
      <polygon class="cls-24" points="740.69506 1328.34794 721.85421 1320.04915 727.55151 1317.48445 747.22371 1325.5224 740.69506 1328.34794"/>
      <polygon class="cls-24" points="766.06456 1339.21143 747.22371 1330.91264 752.92101 1328.34794 772.59321 1336.38589 766.06456 1339.21143"/>
    </g>
    <g>
      <polygon class="cls-24" points="817.87943 1419.82297 799.03859 1411.52419 804.73588 1408.95948 824.40809 1416.99744 817.87943 1419.82297"/>
      <polygon class="cls-24" points="843.24893 1430.68646 824.40809 1422.38768 830.10538 1419.82297 849.77759 1427.86092 843.24893 1430.68646"/>
      <polygon class="cls-24" points="868.61844 1441.54995 849.77759 1433.25117 855.47488 1430.68646 875.14709 1438.72441 868.61844 1441.54995"/>
      <polygon class="cls-24" points="893.98794 1452.41344 875.14709 1444.11466 880.84439 1441.54995 900.51659 1449.5879 893.98794 1452.41344"/>
      <polygon class="cls-24" points="919.35744 1463.27693 900.51659 1454.97814 906.21389 1452.41344 925.88609 1460.45139 919.35744 1463.27693"/>
      <polygon class="cls-24" points="944.72694 1474.14042 925.88609 1465.84163 931.58339 1463.27693 951.25559 1471.31488 944.72694 1474.14042"/>
    </g>
    <g>
      <polygon class="cls-24" points="970.09644 1485.67668 951.25559 1477.37789 956.95289 1474.81319 976.62509 1482.85114 970.09644 1485.67668"/>
      <polygon class="cls-24" points="995.46594 1496.54017 976.62509 1488.24138 982.32239 1485.67668 1001.99459 1493.71463 995.46594 1496.54017"/>
      <polygon class="cls-24" points="1020.83544 1507.40365 1001.99459 1499.10487 1007.69189 1496.54017 1027.36409 1504.57812 1020.83544 1507.40365"/>
      <polygon class="cls-24" points="1046.20494 1518.26714 1027.36409 1509.96836 1033.06139 1507.40365 1052.73359 1515.44161 1046.20494 1518.26714"/>
      <polygon class="cls-24" points="1071.57444 1529.13063 1052.73359 1520.83185 1058.43089 1518.26714 1078.10309 1526.3051 1071.57444 1529.13063"/>
      <polygon class="cls-24" points="1096.94394 1539.99412 1078.10309 1531.69534 1083.80039 1529.13063 1103.47259 1537.16858 1096.94394 1539.99412"/>
    </g>
    <g>
      <polygon class="cls-24" points="1124.28793 1550.85761 1105.44708 1542.55883 1111.14438 1539.99412 1130.81658 1548.03207 1124.28793 1550.85761"/>
      <polygon class="cls-24" points="1149.65743 1561.7211 1130.81658 1553.42232 1136.51388 1550.85761 1156.18608 1558.89556 1149.65743 1561.7211"/>
      <polygon class="cls-24" points="1175.02693 1572.58459 1156.18608 1564.2858 1161.88338 1561.7211 1181.55558 1569.75905 1175.02693 1572.58459"/>
      <polygon class="cls-24" points="1200.39643 1583.44808 1181.55558 1575.14929 1187.25288 1572.58459 1206.92508 1580.62254 1200.39643 1583.44808"/>
      <polygon class="cls-21" points="1225.76593 1594.31157 1206.92508 1586.01278 1212.62238 1583.44808 1232.29458 1591.48603 1225.76593 1594.31157"/>
    </g>
    <g>
      <polygon class="cls-24" points="1488.90766 1529.53096 1470.06681 1521.23217 1475.76411 1518.66747 1495.43631 1526.70542 1488.90766 1529.53096"/>
      <polygon class="cls-24" points="1514.27716 1540.39445 1495.43631 1532.09566 1501.13361 1529.53096 1520.80581 1537.56891 1514.27716 1540.39445"/>
      <polygon class="cls-24" points="1539.64666 1551.25793 1520.80581 1542.95915 1526.50311 1540.39445 1546.17531 1548.4324 1539.64666 1551.25793"/>
      <polygon class="cls-24" points="1565.01616 1562.12142 1546.17531 1553.82264 1551.87261 1551.25793 1571.54481 1559.29589 1565.01616 1562.12142"/>
      <polygon class="cls-24" points="1590.38566 1572.98491 1571.54481 1564.68613 1577.24211 1562.12142 1596.91431 1570.15938 1590.38566 1572.98491"/>
    </g>
    <g>
      <polygon class="cls-24" points="1476.08711 1338.90664 1494.92796 1330.60785 1489.23066 1328.04315 1469.55846 1336.0811 1476.08711 1338.90664"/>
      <polygon class="cls-24" points="1450.71761 1349.77012 1469.55846 1341.47134 1463.86116 1338.90664 1444.18896 1346.94459 1450.71761 1349.77012"/>
      <polygon class="cls-24" points="1425.34811 1360.63361 1444.18896 1352.33483 1438.49166 1349.77012 1418.81945 1357.80808 1425.34811 1360.63361"/>
      <polygon class="cls-24" points="1351.07694 1392.58189 1368.45982 1384.9253 1362.76253 1382.36059 1349.67342 1387.70873 1351.05691 1388.28952 1351.07694 1392.58189"/>
      <polygon class="cls-24" points="1399.97861 1371.4971 1418.81945 1363.19832 1413.12216 1360.63361 1393.44995 1368.67157 1399.97861 1371.4971"/>
      <polygon class="cls-24" points="1374.60911 1382.36059 1393.44995 1374.06181 1387.75266 1371.4971 1368.08045 1379.53505 1374.60911 1382.36059"/>
    </g>
    <g>
      <polygon class="cls-24" points="1361.5518 1475.21351 1351.08109 1470.6015 1351.05691 1465.07454 1368.08045 1472.38797 1361.5518 1475.21351"/>
      <polygon class="cls-24" points="1386.9213 1486.077 1368.08045 1477.77822 1373.77775 1475.21351 1393.44995 1483.25146 1386.9213 1486.077"/>
      <polygon class="cls-24" points="1412.2908 1496.94049 1393.44995 1488.64171 1399.14725 1486.077 1418.81945 1494.11495 1412.2908 1496.94049"/>
      <polygon class="cls-24" points="1437.6603 1507.80398 1418.81945 1499.50519 1424.51675 1496.94049 1444.18896 1504.97844 1437.6603 1507.80398"/>
      <polygon class="cls-24" points="1463.0298 1518.66747 1444.18896 1510.36868 1449.88625 1507.80398 1469.55846 1515.84193 1463.0298 1518.66747"/>
    </g>
    <polygon class="cls-24" points="791.43406 1350.07492 772.59321 1341.77613 778.29051 1339.21143 797.96271 1347.24938 791.43406 1350.07492"/>
    <polygon class="cls-24" points="783.64692 1382.3478 802.48777 1374.04901 796.79047 1371.48431 777.11827 1379.52226 783.64692 1382.3478"/>
    <polygon class="cls-24" points="850.52389 1354.34815 869.36474 1346.04936 863.66744 1343.48466 843.99524 1351.52261 850.52389 1354.34815"/>
    <polygon class="cls-24" points="875.8934 1343.48466 894.73424 1335.18587 889.03695 1332.62117 869.36474 1340.65912 875.8934 1343.48466"/>
    <polygon class="cls-24" points="1068.08418 1244.21958 1086.92502 1235.9208 1081.22773 1233.35609 1061.55552 1241.39405 1068.08418 1244.21958"/>
    <polygon class="cls-24" points="1093.55425 1233.35609 1100.26099 1230.40199 1100.12645 1225.12096 1087.0256 1230.53056 1093.55425 1233.35609"/>
    <polygon class="cls-24" points="901.2629 1332.62117 920.10374 1324.32238 914.40645 1321.75768 894.73424 1329.79563 901.2629 1332.62117"/>
    <polygon class="cls-24" points="722.92789 1408.66559 741.76874 1400.36681 736.07144 1397.8021 716.39924 1405.84005 722.92789 1408.66559"/>
    <g>
      <polygon class="cls-24" points="697.55839 1419.82297 716.39924 1411.52419 710.70194 1408.95948 691.02974 1416.99744 697.55839 1419.82297"/>
      <polygon class="cls-24" points="672.18889 1430.68646 691.02974 1422.38768 685.33244 1419.82297 665.66023 1427.86092 672.18889 1430.68646"/>
    </g>
    <g>
      <polygon class="cls-24" points="646.81939 1441.54995 665.66023 1433.25117 659.96294 1430.68646 640.29073 1438.72441 646.81939 1441.54995"/>
      <polygon class="cls-24" points="621.44989 1452.41344 640.29073 1444.11466 634.59344 1441.54995 614.92123 1449.5879 621.44989 1452.41344"/>
    </g>
    <g>
      <polygon class="cls-24" points="596.08039 1463.27693 614.92123 1454.97814 609.22394 1452.41344 589.55173 1460.45139 596.08039 1463.27693"/>
      <polygon class="cls-24" points="570.71088 1474.14042 589.55173 1465.84163 583.85443 1463.27693 564.18223 1471.31488 570.71088 1474.14042"/>
    </g>
    <g>
      <polygon class="cls-24" points="545.34138 1485.00391 564.18223 1476.70512 558.48493 1474.14042 538.81273 1482.17837 545.34138 1485.00391"/>
      <polygon class="cls-24" points="519.97188 1495.8674 538.81273 1487.56861 533.11543 1485.00391 513.44323 1493.04186 519.97188 1495.8674"/>
    </g>
    <polygon class="cls-8" points="999.42498 1291.73311 999.42498 1456.67863 899.6087 1414.34586 899.6087 1250.1039 945.22481 1269.12446 999.42498 1291.73311"/>
    <polygon class="cls-26" points="1099.26474 1250.1039 999.42498 1291.73311 945.22481 1269.12446 899.6087 1250.1039 899.72594 1250.05709 952.91749 1227.37787 999.54222 1207.51318 999.72988 1207.44275 1046.44837 1227.47177 1099.14736 1250.05709 1099.26474 1250.1039"/>
    <g id="lantaarn">
      <rect class="cls-29" x="602.47216" y="1320.18077" width="1.99601" height="50.59876" transform="translate(1206.94033 2690.9603) rotate(-180)"/>
      <path class="cls-3" d="M603.47016,1320.43027c6.22532-.00004,6.5494-6.93847,6.5494-6.93847h-13.09879s.08646,6.93851,6.5494,6.93847Z"/>
      <path class="cls-34" d="M596.42422,1311.16131h13.97421c.38302,0,.69398.31096.69398.69398h0c0,.90321-.73329,1.63651-1.63651,1.63651h-12.01262c-.92433,0-1.67477-.75044-1.67477-1.67477h0c0-.3619.29381-.65571.65571-.65571Z" transform="translate(1206.86093 2624.65311) rotate(180)"/>
      <path class="cls-22" d="M609.13695,1311.16131h-11.33357s0-4.14608,5.48028-4.14608c5.48028,0,5.85329,4.14608,5.85329,4.14608Z"/>
    </g>
    <path class="cls-12" d="M643.31544,1370.77h-47.3303l.93563-57.2782h13.09879l33.29588,57.2782Z"/>
    <path class="cls-2" d="M643.31544,1370.77c0,11.35435-6.06287,14.23107-8.85076,16.03168-13.23006-5.49322-24.6073-10.23373-38.47954-16.03168,10.32933-4.43159,25.94808-10.66911,38.20635-15.72807,4.11269,6.97388,2.21278,3.91126,9.12395,15.72807Z"/>
    <polygon class="cls-9" points="1166.38257 1108.7652 1105.14555 1083.82465 1105.14555 1056.39437 1166.38257 1081.11203 1166.38257 1108.7652"/>
    <polygon class="cls-20" points="1239.64732 1179.79889 1178.4103 1154.85848 1178.4103 1127.42805 1239.64732 1152.14572 1239.64732 1179.79889"/>
    <polygon class="cls-9" points="1239.64732 1179.79896 1178.4103 1154.85841 1178.4103 1127.42812 1239.64732 1152.14579 1239.64732 1179.79896"/>
    <polygon class="cls-39" points="1166.38257 1149.90007 1105.14555 1124.95966 1105.14555 1097.52923 1166.38257 1122.2469 1166.38257 1149.90007"/>
    <polygon class="cls-9" points="1166.38257 1149.90014 1105.14555 1124.95959 1105.14555 1097.5293 1166.38257 1122.24697 1166.38257 1149.90014"/>
    <polygon class="cls-38" points="1099.71035 1009.93099 1007.71522 1049.04983 1007.71522 1002.95233 1099.71035 962.88959 1099.71035 1009.93099"/>
    <polygon class="cls-5" points="1099.71035 1068.14189 1007.71522 1107.26074 1007.71522 1061.16323 1099.71035 1021.10049 1099.71035 1068.14189"/>
    <polygon class="cls-23" points="1099.71035 1125.92935 1007.71522 1165.0482 1007.71522 1118.9507 1099.71035 1078.88795 1099.71035 1125.92935"/>
    <polygon class="cls-10" points="1099.71035 1182.6436 1020.47511 1216.33659 1007.71522 1210.86621 1007.71522 1175.66494 1099.71035 1135.6022 1099.71035 1182.6436"/>
    <polygon class="cls-36" points="984.37136 1049.92671 924.23974 1024.86594 924.31523 979.67771 984.44686 1004.73849 984.37136 1049.92671"/>
    <polygon class="cls-36" points="984.37136 1108.36067 924.23974 1083.2999 924.31523 1038.11167 984.44686 1063.17244 984.37136 1108.36067"/>
    <polygon class="cls-36" points="984.37136 1164.84958 924.23974 1139.78881 924.31523 1094.60059 984.44686 1119.66136 984.37136 1164.84958"/>
    <polygon class="cls-36" points="976.1169 1217.49365 924.23974 1195.87305 924.31523 1150.68482 984.44686 1175.7456 984.38299 1213.97184 976.1169 1217.49365"/>
    <polygon class="cls-36" points="916.70674 1022.47538 856.57512 997.4146 856.65061 952.22638 916.78224 977.28715 916.70674 1022.47538"/>
    <polygon class="cls-36" points="916.70674 1081.05399 899.23839 1073.77379 899.23337 1038.11167 856.63551 1019.84406 856.65061 1010.80499 916.78224 1035.86577 916.70674 1081.05399"/>
    <polygon class="cls-36" points="916.73892 1137.04197 899.27056 1129.76177 899.29574 1084.55257 916.81442 1091.85375 916.73892 1137.04197"/>
    <polygon class="cls-36" points="916.73892 1193.43158 899.27056 1186.15137 899.29574 1140.94218 916.81442 1148.24335 916.73892 1193.43158"/>
  </g>
</svg>