<?xml version="1.0" encoding="UTF-8"?>
<svg id="Layer_1" data-name="Layer 1" xmlns="http://www.w3.org/2000/svg" viewBox="0 0 31.96436 41.09229">
  <defs>
    <style>
      .cls-1 {
        fill: #eeeeee;
        stroke-width: 0px;
      }
    </style>
  </defs>
  <path class="cls-1" d="M15.98193,0C7.16943,0,0,7.16943,0,15.98193c0,4.50098,2.25391,9.49805,6.89062,15.27734,2.54004,3.16699,5.44482,6.15332,7.96826,8.7041l1.11719,1.12891,1.12256-1.12305c6.38184-6.38135,14.86572-15.81104,14.86572-23.9873C31.96436,7.16943,24.79443,0,15.98193,0ZM15.9873,36.60742c-2.18164-2.22607-4.54932-4.72754-6.63281-7.32471-4.16895-5.19678-6.19531-9.54736-6.19531-13.30078,0-7.07031,5.75244-12.82275,12.82275-12.82275,7.0708,0,12.82324,5.75244,12.82324,12.82275,0,7.09131-8.64307,16.39014-12.81787,20.62549Z"/>
  <path class="cls-1" d="M15.98193,8.51514c-3.85156,0-6.98535,3.13379-6.98535,6.98535s3.13379,6.98535,6.98535,6.98535,6.98535-3.13379,6.98535-6.98535-3.13379-6.98535-6.98535-6.98535ZM15.98193,20.36377c-2.68164,0-4.86328-2.18164-4.86328-4.86328s2.18164-4.86328,4.86328-4.86328,4.86328,2.18164,4.86328,4.86328-2.18164,4.86328-4.86328,4.86328Z"/>
</svg>