<?xml version="1.0" encoding="UTF-8"?>
<svg id="Layer_1" data-name="Layer 1" xmlns="http://www.w3.org/2000/svg" viewBox="0 0 47.74133 47.4458">
  <defs>
    <style>
      .cls-1 {
        fill: #fd7014;
        stroke-width: 0px;
      }
    </style>
  </defs>
  <path class="cls-1" d="M46.91113,42.60693l-11.95947-11.95996c2.31506-3.18622,3.69775-7.09137,3.69775-11.32227C38.64941,8.66895,29.98047,0,19.32471,0S0,8.66895,0,19.32471s8.66895,19.32471,19.32471,19.32471c4.38239,0,8.41528-1.48328,11.66077-3.95105l11.91687,11.91736c.55371.55371,1.27881.83008,2.00439.83008s1.45068-.27686,2.00439-.83008c1.10693-1.10693,1.10693-2.90186,0-4.00879ZM19.32471,34.2002c-8.20215,0-14.87549-6.67334-14.87549-14.87549s6.67334-14.87549,14.87549-14.87549,14.87549,6.67334,14.87549,14.87549-6.67334,14.87549-14.87549,14.87549Z"/>
</svg>