<?xml version="1.0" encoding="UTF-8"?>
<svg id="Layer_1" data-name="Layer 1" xmlns="http://www.w3.org/2000/svg" viewBox="0 0 1754.77881 105.7373">
  <defs>
    <style>
      .cls-1 {
        fill: #eee;
        stroke-width: 0px;
      }
    </style>
  </defs>
  <polygon class="cls-1" points="65.4834 70.01953 36.99414 3.25977 0 3.25977 47.19922 102.47754 83.34277 102.47754 130.5415 3.25977 93.97314 3.25977 65.4834 70.01953"/>
  <polygon class="cls-1" points="173.05615 63.78223 233.01172 63.78223 233.01172 40.82129 173.05615 40.82129 173.05615 28.20605 246.61865 28.20605 246.61865 3.25977 139.18066 3.25977 139.18066 102.47754 248.17822 102.47754 248.17822 77.53125 173.05615 77.53125 173.05615 63.78223"/>
  <polygon class="cls-1" points="298.48828 3.25977 263.90381 3.25977 263.90381 102.47754 362.12891 102.47754 362.12891 75.97168 298.48828 75.97168 298.48828 3.25977"/>
  <path class="cls-1" d="M432.56836,0c-39.6875,0-66.05078,18.99316-66.05078,52.86914s26.36328,52.86816,66.05078,52.86816c39.82812,0,66.19141-18.99316,66.19141-52.86816S472.39648,0,432.56836,0ZM432.56836,78.66504c-19.27734,0-31.04102-9.49609-31.04102-25.7959,0-16.30078,11.90625-25.79688,31.04102-25.79688,19.27637,0,31.04004,9.49609,31.04004,25.79688,0,16.2998-11.76367,25.7959-31.04004,25.7959Z"/>
  <path class="cls-1" d="M583.08594,3.25977l-50.31738,99.21777h36.00098l8.0791-17.15039h49.60938l8.0791,17.15039h36.42676L620.64648,3.25977h-37.56055ZM587.33789,62.93262l14.31543-30.61621,14.31543,30.61621h-28.63086Z"/>
  <polygon class="cls-1" points="767.47949 57.12109 716.31152 3.25977 679.74316 3.25977 679.74316 102.47754 713.05176 102.47754 713.05176 43.08887 770.59766 102.47754 800.92969 102.47754 800.92969 3.25977 767.47949 3.25977 767.47949 57.12109"/>
  <polygon class="cls-1" points="813.11133 29.48145 852.23193 29.48145 852.23193 102.47754 886.81592 102.47754 886.81592 29.48145 926.07764 29.48145 926.07764 3.25977 813.11133 3.25977 813.11133 29.48145"/>
  <polygon class="cls-1" points="1055.76221 66.75879 1034.64307 3.25977 1003.60205 3.25977 982.48291 66.75879 963.20654 3.25977 928.47998 3.25977 964.62354 102.47754 998.49951 102.47754 1018.90967 38.83691 1039.17822 102.47754 1073.0542 102.47754 1109.19775 3.25977 1075.03857 3.25977 1055.76221 66.75879"/>
  <polygon class="cls-1" points="1153.69385 63.78223 1213.64893 63.78223 1213.64893 40.82129 1153.69385 40.82129 1153.69385 28.20605 1227.25635 28.20605 1227.25635 3.25977 1119.81787 3.25977 1119.81787 102.47754 1228.81494 102.47754 1228.81494 77.53125 1153.69385 77.53125 1153.69385 63.78223"/>
  <path class="cls-1" d="M1362.46729,38.26953c0-23.67041-20.97754-35.00977-47.48242-35.00977h-70.44434v99.21777h34.30078v-29.19824h23.24512l24.0957,29.19824h39.40332l-27.92188-32.45801c14.88184-4.96094,24.80371-15.4502,24.80371-31.75ZM1312.1499,50.17578h-33.30859v-22.11133h33.30859c8.92969,0,15.30762,2.55078,15.30762,11.05566,0,8.50391-6.37793,11.05566-15.30762,11.05566Z"/>
  <path class="cls-1" d="M1448.35303,3.25977h-69.59375v99.21777h34.58398v-27.63965h35.00977c28.48926,0,47.48242-11.76367,47.48242-35.85938,0-23.95459-18.99316-35.71875-47.48242-35.71875ZM1445.51807,51.73438h-32.1748v-23.66992h32.1748c8.92969,0,15.30859,2.97656,15.30859,11.76465,0,8.78711-6.37891,11.90527-15.30859,11.90527Z"/>
  <polygon class="cls-1" points="1542.74561 63.78223 1602.70068 63.78223 1602.70068 40.82129 1542.74561 40.82129 1542.74561 28.20605 1616.30811 28.20605 1616.30811 3.25977 1508.86963 3.25977 1508.86963 102.47754 1617.8667 102.47754 1617.8667 77.53125 1542.74561 77.53125 1542.74561 63.78223"/>
  <polygon class="cls-1" points="1721.32861 3.25977 1721.32861 57.12109 1670.16064 3.25977 1633.59229 3.25977 1633.59229 102.47754 1666.90088 102.47754 1666.90088 43.08887 1724.44678 102.47754 1754.77881 102.47754 1754.77881 3.25977 1721.32861 3.25977"/>
</svg>